<svg xmlns="http://www.w3.org/2000/svg" viewBox="0 0 50 50"><defs><style>.cls-1{fill:#dcdcdc;}</style></defs><g id="Ebene_2" data-name="Ebene 2"><g id="Ebene_1-2" data-name="Ebene 1"><path class="cls-1" d="M25,0A25,25,0,1,0,50,25,25,25,0,0,0,25,0m0,46A21,21,0,1,1,46,25,21,21,0,0,1,25,46m-.4-12.93a3.23,3.23,0,1,0,2.28.94,3.1,3.1,0,0,0-2.28-.94m7.07-20.72A10.16,10.16,0,0,0,28.47,11a15.05,15.05,0,0,0-3.67-.45,10.16,10.16,0,0,0-3.45.58,10.45,10.45,0,0,0-2.93,1.59,8.25,8.25,0,0,0-2,2.31,5.43,5.43,0,0,0-.76,2.77,2.14,2.14,0,0,0,.76,1.78,2.77,2.77,0,0,0,1.79.61,2.42,2.42,0,0,0,1.47-.39,3.5,3.5,0,0,0,.88-1,7.58,7.58,0,0,0,.63-1.24,4.87,4.87,0,0,1,.73-1.24,4,4,0,0,1,1.17-1A4.25,4.25,0,0,1,25,15a4.09,4.09,0,0,1,2.77.88,3.17,3.17,0,0,1,1,2.49,3,3,0,0,1-.51,1.73A7.59,7.59,0,0,1,27,21.49c-.51.46-1.05.9-1.64,1.34a14.78,14.78,0,0,0-1.65,1.39,7.55,7.55,0,0,0-1.27,1.63A4,4,0,0,0,22,27.91a3,3,0,0,0,.62,1.78,2.21,2.21,0,0,0,1.89.84,2.77,2.77,0,0,0,1.47-.31,2.32,2.32,0,0,0,.76-.8,5.22,5.22,0,0,0,.45-1.08,4.14,4.14,0,0,1,.53-1.1,3.64,3.64,0,0,1,1-.94l1.43-1c.52-.38,1.06-.8,1.63-1.26a10.92,10.92,0,0,0,1.53-1.51,7.31,7.31,0,0,0,1.12-1.84,6,6,0,0,0,.43-2.32,7,7,0,0,0-.85-3.56,6.94,6.94,0,0,0-2.26-2.43"/></g></g></svg>